<svg width="28" height="28" viewBox="0 0 28 28" fill="none" xmlns="http://www.w3.org/2000/svg">
<g clip-path="url(#clip0_41847_8488)">
<path d="M25.4237 21.8207C25.0153 22.7718 24.511 23.6787 23.9187 24.5274C23.1265 25.6562 22.4784 26.4372 21.9791 26.8712C21.205 27.5829 20.3749 27.9481 19.4865 27.9685C18.8489 27.9685 18.0801 27.7871 17.1847 27.419C16.2863 27.0527 15.4609 26.8707 14.7061 26.8707C13.9145 26.8707 13.0658 27.0527 12.1575 27.419C11.2481 27.7871 10.5154 27.979 9.95542 27.9977C9.10376 28.0344 8.25442 27.6593 7.40626 26.8712C6.86551 26.3987 6.18942 25.5902 5.37859 24.4446C4.50884 23.2207 3.79367 21.8021 3.23367 20.1839C2.63401 18.4368 2.33301 16.7446 2.33301 15.1066C2.33301 13.23 2.73842 11.6118 3.55042 10.2556C4.18917 9.16592 5.03792 8.30725 6.10076 7.67608C7.14346 7.05211 8.33319 6.71633 9.54826 6.70308C10.2249 6.70308 11.1122 6.9125 12.2153 7.32375C13.3148 7.73617 14.0207 7.94558 14.3304 7.94558C14.5614 7.94558 15.346 7.70058 16.6754 7.21292C17.9331 6.76025 18.9942 6.573 19.8633 6.64708C22.2194 6.83725 23.9893 7.76592 25.1658 9.43892C23.0594 10.7152 22.017 12.5032 22.038 14.7968C22.0567 16.5836 22.7048 18.0705 23.9788 19.2506C24.5563 19.7989 25.2008 20.2224 25.9178 20.5228C25.7674 20.9608 25.6027 21.3937 25.4237 21.8207ZM20.0208 0.560583C20.0208 1.96058 19.5093 3.26842 18.4896 4.47825C17.2588 5.91733 15.7707 6.74858 14.1566 6.61733C14.1349 6.44122 14.124 6.26394 14.1239 6.0865C14.1239 4.7425 14.709 3.304 15.7485 2.12742C16.2677 1.53183 16.9268 1.03658 17.7272 0.641667C18.5263 0.252583 19.2812 0.0373333 19.9917 0C20.0121 0.18725 20.0208 0.3745 20.0208 0.56V0.560583Z" fill="white"/>
</g>
<defs>
<clipPath id="clip0_41847_8488">
<rect width="28" height="28" fill="white"/>
</clipPath>
</defs>
</svg>
