<svg width="24" height="24" viewBox="0 0 24 24" fill="none" xmlns="http://www.w3.org/2000/svg">
<path d="M14.8154 3.4082C16.1999 3.78056 17.4622 4.51016 18.476 5.52392C19.4898 6.53768 20.2194 7.80002 20.5917 9.18449" stroke="#00B307" stroke-width="1.5" stroke-linecap="round" stroke-linejoin="round"/>
<path d="M13.9697 6.56494C14.8002 6.78837 15.5575 7.22607 16.1656 7.8342C16.7737 8.44233 17.2114 9.19956 17.4348 10.0301" stroke="#00B307" stroke-width="1.5" stroke-linecap="round" stroke-linejoin="round"/>
<path d="M7.98234 12.0666C8.82922 13.7986 10.2329 15.1962 11.9685 16.0356C12.0956 16.0958 12.2362 16.1218 12.3764 16.1111C12.5166 16.1004 12.6516 16.0532 12.768 15.9744L15.3242 14.2708C15.4371 14.1954 15.567 14.1494 15.7022 14.1368C15.8373 14.1243 15.9735 14.1456 16.0984 14.1989L20.88 16.2488C21.0424 16.3178 21.178 16.4377 21.2664 16.5904C21.3547 16.7432 21.3911 16.9205 21.37 17.0957C21.2186 18.2782 20.6415 19.365 19.7466 20.1527C18.8518 20.9404 17.7005 21.3749 16.5083 21.375C12.8262 21.375 9.29497 19.9123 6.69134 17.3087C4.08771 14.705 2.625 11.1738 2.625 7.49166C2.62511 6.2996 3.0597 5.14844 3.84739 4.25371C4.63509 3.35898 5.7219 2.78203 6.90433 2.63086C7.07953 2.60973 7.25685 2.64609 7.40959 2.73446C7.56233 2.82284 7.68222 2.95844 7.75122 3.12086L9.80269 7.90653C9.85545 8.03018 9.87686 8.16494 9.86504 8.29886C9.85322 8.43277 9.80851 8.5617 9.7349 8.67419L8.03624 11.2696C7.95914 11.3864 7.91365 11.5213 7.9042 11.661C7.89476 11.8007 7.92168 11.9404 7.98234 12.0666V12.0666Z" stroke="#00B307" stroke-width="1.5" stroke-linecap="round" stroke-linejoin="round"/>
</svg>
