<svg width="83" height="32" viewBox="0 0 83 32" fill="none" xmlns="http://www.w3.org/2000/svg">
<g clip-path="url(#clip0_41653_15653)">
<path d="M73.299 18.3805C72.9751 18.3805 72.7322 18.2995 72.5433 18.1106C72.3813 17.9486 72.2734 17.6787 72.2734 17.3548V7.39537C72.2734 7.07149 72.3544 6.80158 72.5433 6.63964C72.7322 6.4777 72.9751 6.39673 73.299 6.39673H75.1074C75.5122 6.39673 75.8631 6.42372 76.16 6.45071C76.4569 6.50469 76.7268 6.58566 76.9157 6.7476C77.1317 6.90954 77.2666 7.12547 77.3746 7.44935C77.4825 7.74625 77.5365 8.17809 77.5365 8.69091V16.0863C77.5365 16.761 77.4555 17.2469 77.2666 17.5708C77.0777 17.8946 76.8078 18.1106 76.4569 18.2185C76.106 18.3265 75.6472 18.3805 75.1074 18.3535L73.299 18.3805ZM67.4961 0.593789C67.1722 0.620779 66.9023 0.701751 66.7404 0.863693C66.5784 1.02564 66.4974 1.29554 66.4974 1.61942V23.1578C66.4974 23.4817 66.5784 23.7246 66.7673 23.9135C66.9293 24.0754 67.1992 24.1834 67.5231 24.1834H75.0264C76.5919 24.1834 77.9414 24.0215 79.021 23.6976C80.1006 23.3737 80.9643 22.8609 81.6121 22.2131C82.2598 21.5653 82.7457 20.7016 83.0156 19.676C83.3125 18.6504 83.4474 17.4628 83.4474 16.0863V8.69091C83.4474 7.3144 83.3125 6.12682 83.0156 5.10119C82.7187 4.07555 82.2598 3.23885 81.6121 2.59108C80.9643 1.91632 80.1006 1.43049 79.021 1.10661C77.9414 0.782722 76.6188 0.620779 75.0264 0.620779L67.4961 0.593789ZM57.6716 14.8177C57.6716 15.4655 57.6446 16.0593 57.6176 16.5721C57.5636 17.0849 57.4557 17.5168 57.2937 17.8946C57.1318 18.2725 56.8619 18.5424 56.484 18.7313C56.1331 18.9203 55.6473 19.0282 55.0265 19.0282C54.4057 19.0282 53.9199 18.9203 53.569 18.7313C53.1912 18.5424 52.9483 18.2725 52.7593 17.8946C52.5974 17.5438 52.4894 17.0849 52.4354 16.5721C52.3815 16.0593 52.3545 15.4655 52.3815 14.8177V9.95946C52.3815 9.31169 52.4084 8.7179 52.4354 8.20508C52.4894 7.69227 52.5974 7.26042 52.7593 6.88255C52.9213 6.50469 53.1912 6.23478 53.569 6.04585C53.9199 5.85692 54.4057 5.74896 55.0265 5.74896C55.6473 5.74896 56.1331 5.85692 56.484 6.04585C56.8619 6.23478 57.1048 6.50469 57.2937 6.88255C57.4557 7.23343 57.5636 7.69227 57.6176 8.20508C57.6716 8.7179 57.6716 9.31169 57.6716 9.95946V14.8177ZM63.4475 8.17809C63.4475 7.80023 63.4205 7.34139 63.3666 6.80158C63.3126 6.26178 63.2046 5.69498 63.0157 5.0742C62.8267 4.45342 62.5568 3.85963 62.206 3.26584C61.8281 2.67205 61.3423 2.13224 60.7215 1.64641C60.1007 1.16059 59.318 0.755731 58.3733 0.458837C57.4287 0.161942 56.2951 0.0269904 54.9725 0C53.65 0 52.5164 0.161942 51.5717 0.458837C50.6271 0.755731 49.8444 1.16059 49.2236 1.64641C48.6028 2.13224 48.117 2.67205 47.7391 3.26584C47.3612 3.85963 47.0913 4.48041 46.9294 5.0742C46.7405 5.69498 46.6325 6.26178 46.5785 6.80158C46.5245 7.34139 46.4975 7.80023 46.4975 8.17809V16.5991C46.4975 16.977 46.5245 17.4358 46.5785 17.9756C46.6325 18.5154 46.7405 19.0822 46.9294 19.703C47.0913 20.3238 47.3882 20.9176 47.7391 21.5114C48.117 22.1051 48.6028 22.645 49.2236 23.1578C49.8444 23.6436 50.6271 24.0485 51.5717 24.3184C52.5164 24.6153 53.65 24.7772 54.9725 24.7772C56.2951 24.7772 57.4287 24.6153 58.3733 24.3184C59.318 24.0215 60.1007 23.6436 60.7215 23.1578C61.3423 22.6719 61.8281 22.1321 62.206 21.5114C62.5838 20.9176 62.8537 20.2968 63.0157 19.703C63.1776 19.0822 63.3126 18.5154 63.3666 17.9756C63.4205 17.4358 63.4475 16.977 63.4475 16.5991V8.17809ZM38.0496 14.8177C38.0496 15.4655 38.0226 16.0593 37.9956 16.5721C37.9416 17.0849 37.8336 17.5168 37.6717 17.8946C37.5097 18.2725 37.2398 18.5424 36.862 18.7313C36.5111 18.9203 36.0253 19.0282 35.4045 19.0282C34.7837 19.0282 34.2979 18.9203 33.947 18.7313C33.5691 18.5424 33.3262 18.2725 33.1373 17.8946C32.9754 17.5438 32.8674 17.0849 32.8134 16.5721C32.7594 16.0593 32.7324 15.4655 32.7594 14.8177V9.95946C32.7594 9.31169 32.7864 8.7179 32.8134 8.20508C32.8674 7.69227 32.9754 7.26042 33.1373 6.88255C33.2992 6.50469 33.5691 6.23478 33.947 6.04585C34.2979 5.85692 34.7837 5.74896 35.4045 5.74896C36.0253 5.74896 36.5111 5.85692 36.862 6.04585C37.2398 6.23478 37.4828 6.50469 37.6717 6.88255C37.8336 7.23343 37.9416 7.69227 37.9956 8.20508C38.0495 8.7179 38.0496 9.31169 38.0496 9.95946V14.8177ZM43.8525 8.17809C43.8525 7.80023 43.8255 7.34139 43.7715 6.80158C43.7175 6.26178 43.6096 5.69498 43.4206 5.0742C43.2317 4.45342 42.9618 3.85963 42.6109 3.26584C42.2331 2.67205 41.7472 2.13224 41.1265 1.64641C40.5057 1.16059 39.723 0.755731 38.7783 0.458837C37.8336 0.161942 36.7 0.0269904 35.3775 0C34.055 0 32.9214 0.161942 31.9767 0.458837C31.032 0.755731 30.2493 1.16059 29.6285 1.64641C29.0078 2.13224 28.5219 2.67205 28.1441 3.26584C27.7662 3.85963 27.4963 4.48041 27.3344 5.0742C27.1454 5.69498 27.0375 6.26178 26.9835 6.80158C26.9295 7.34139 26.9025 7.80023 26.9025 8.17809V16.5991C26.9025 16.977 26.9295 17.4358 26.9835 17.9756C27.0375 18.5154 27.1454 19.0822 27.3344 19.703C27.4963 20.3238 27.7932 20.9176 28.1441 21.5114C28.5219 22.1051 29.0078 22.645 29.6285 23.1578C30.2493 23.6436 31.032 24.0485 31.9767 24.3184C32.9214 24.6153 34.055 24.7772 35.3775 24.7772C36.7 24.7772 37.8336 24.6153 38.7783 24.3184C39.723 24.0215 40.5057 23.6436 41.1265 23.1578C41.7472 22.6719 42.2331 22.1321 42.6109 21.5114C42.9888 20.9176 43.2587 20.2968 43.4206 19.703C43.5826 19.0822 43.7175 18.5154 43.7715 17.9756C43.8255 17.4358 43.8525 16.977 43.8525 16.5991V8.17809ZM23.9336 0.593789C24.6083 0.593789 24.9322 0.944664 24.9322 1.59243V5.37109C24.9322 5.69498 24.8512 5.93789 24.6893 6.12682C24.5274 6.31576 24.2575 6.39673 23.9336 6.39673H15.1347C14.8108 6.39673 14.5679 6.4777 14.379 6.63964C14.19 6.80158 14.1091 7.07149 14.1091 7.39537V23.1848C14.1091 23.5086 14.0281 23.7516 13.8661 23.9405C13.7042 24.1024 13.4343 24.2104 13.1104 24.2104H9.14282C8.81894 24.2104 8.57602 24.1294 8.38709 23.9405C8.22515 23.7516 8.11719 23.5086 8.11719 23.1848V1.61942C8.11719 1.29554 8.19816 1.02564 8.38709 0.863693C8.57602 0.701751 8.81894 0.620779 9.14282 0.620779L23.9336 0.593789Z" fill="#CCCCCC"/>
<path d="M81.2682 29.4545C81.2682 29.4275 81.2412 29.4275 81.2412 29.4005C81.2412 29.3735 81.2412 29.3735 81.2682 29.3465L82.6178 27.5112C82.6717 27.4302 82.6717 27.3762 82.6447 27.3492C82.6178 27.3222 82.5638 27.2683 82.4828 27.2683H81.5111C81.4572 27.2683 81.4032 27.2683 81.3762 27.2952C81.3492 27.3222 81.2952 27.3492 81.2682 27.4032L80.2156 28.8337C80.1886 28.8607 80.1886 28.8607 80.1616 28.8607C80.1346 28.8607 80.1346 28.8337 80.1346 28.8067V27.4842C80.1346 27.3492 80.0807 27.2952 79.9457 27.2952H79.19C79.136 27.2952 79.082 27.3222 79.055 27.3492C79.028 27.3762 79.001 27.4302 79.001 27.5112V31.7756C79.001 31.8296 79.028 31.8836 79.055 31.9106C79.082 31.9376 79.136 31.9646 79.19 31.9646H79.9457C79.9997 31.9646 80.0537 31.9376 80.1076 31.9106C80.1616 31.8836 80.1616 31.8296 80.1616 31.7756V31.0469V30.9929C80.1616 30.9659 80.1616 30.9659 80.1886 30.9389L80.4585 30.5611C80.4585 30.5341 80.4855 30.5341 80.5125 30.5341C80.5395 30.5341 80.5395 30.5341 80.5665 30.5611L81.4032 31.8296C81.4302 31.8836 81.4572 31.9106 81.5111 31.9376C81.5381 31.9646 81.5921 31.9646 81.6461 31.9646H82.6447C82.7257 31.9646 82.7797 31.9376 82.8067 31.8836C82.8337 31.8296 82.8337 31.7756 82.7797 31.7217L81.2682 29.4545ZM75.2224 27.2683C75.1684 27.2683 75.1144 27.2952 75.0874 27.3222C75.0604 27.3492 75.0335 27.4032 75.0335 27.4842V30.4531C75.0335 30.5341 75.0335 30.6151 75.0604 30.723C75.0604 30.831 75.0874 30.9389 75.1414 31.0739C75.1684 31.1819 75.2224 31.3168 75.3034 31.4248C75.3843 31.5327 75.4653 31.6407 75.6003 31.7487C75.7352 31.8566 75.8702 31.9106 76.0591 31.9916C76.248 32.0456 76.4639 32.0725 76.7338 32.0725C77.0037 32.0725 77.2197 32.0456 77.4086 31.9916C77.5975 31.9376 77.7595 31.8566 77.8674 31.7487C78.0024 31.6407 78.0834 31.5327 78.1643 31.4248C78.2453 31.3168 78.2993 31.1819 78.3263 31.0739C78.3533 30.9659 78.3803 30.831 78.3803 30.723C78.3803 30.6151 78.4073 30.5341 78.4073 30.4531V27.4842C78.4073 27.3492 78.3533 27.2952 78.2183 27.2952H77.4626C77.4086 27.2952 77.3546 27.3222 77.3276 27.3492C77.3006 27.3762 77.2737 27.4302 77.2737 27.5112V30.4801C77.2737 30.5881 77.2467 30.669 77.2197 30.75C77.1927 30.831 77.1387 30.885 77.0577 30.912C76.9768 30.9389 76.8958 30.9659 76.7608 30.9659C76.6259 30.9659 76.5449 30.9389 76.4639 30.912C76.383 30.885 76.329 30.831 76.302 30.75C76.275 30.669 76.248 30.5881 76.248 30.4801C76.248 30.3721 76.221 30.2642 76.248 30.1292V27.5112C76.248 27.3762 76.194 27.3222 76.0591 27.3222L75.2224 27.2683ZM74.3587 30.777C74.4936 30.777 74.5476 30.831 74.5476 30.9659V31.7217C74.5476 31.7756 74.5206 31.8296 74.4936 31.8566C74.4667 31.8836 74.4127 31.9106 74.3317 31.9106H73.576C73.522 31.9106 73.468 31.8836 73.441 31.8566C73.414 31.8296 73.387 31.7756 73.387 31.7217V30.9659C73.387 30.912 73.414 30.858 73.441 30.804C73.468 30.777 73.522 30.75 73.576 30.75L74.3587 30.777ZM71.7406 30.0753V30.4261C71.7406 30.5341 71.7136 30.6151 71.6866 30.696C71.6597 30.777 71.6057 30.831 71.5247 30.858C71.4437 30.885 71.3628 30.912 71.2278 30.912C71.0929 30.912 71.0119 30.885 70.9309 30.858C70.8499 30.831 70.796 30.777 70.769 30.696C70.742 30.6151 70.715 30.5341 70.715 30.4261C70.715 30.3182 70.688 30.2102 70.715 30.0753V29.1306V28.7797C70.715 28.6718 70.742 28.5908 70.769 28.5098C70.796 28.4288 70.8499 28.3749 70.9309 28.3479C71.0119 28.3209 71.0929 28.2939 71.2278 28.2939C71.3628 28.2939 71.4437 28.3209 71.5247 28.3479C71.6057 28.3749 71.6597 28.4288 71.6866 28.5098C71.7136 28.5908 71.7406 28.6718 71.7406 28.7797V30.0753ZM72.9012 28.7527C72.9012 28.6718 72.9012 28.5908 72.8742 28.4828C72.8742 28.3749 72.8472 28.2669 72.8202 28.1319C72.7932 28.024 72.7393 27.889 72.6583 27.7811C72.5773 27.6731 72.4964 27.5651 72.3614 27.4572C72.2265 27.3492 72.0915 27.2952 71.9026 27.2143C71.7136 27.1603 71.4977 27.1333 71.2278 27.1333C70.9579 27.1333 70.742 27.1603 70.5531 27.2143C70.3641 27.2683 70.2022 27.3492 70.0942 27.4572C69.9593 27.5651 69.8783 27.6731 69.7973 27.7811C69.7164 27.889 69.6624 28.024 69.6354 28.1319C69.6084 28.2399 69.5814 28.3749 69.5544 28.4828C69.5544 28.5908 69.5274 28.6718 69.5274 28.7527V30.4261C69.5274 30.5071 69.5274 30.5881 69.5544 30.696C69.5544 30.804 69.5814 30.912 69.6354 31.0469C69.6624 31.1549 69.7164 31.2898 69.7973 31.3978C69.8783 31.5057 69.9593 31.6137 70.0942 31.7217C70.2292 31.8296 70.3641 31.8836 70.5531 31.9646C70.742 32.0186 70.9579 32.0456 71.2278 32.0456C71.4977 32.0456 71.7136 32.0186 71.9026 31.9646C72.0915 31.9106 72.2534 31.8296 72.3614 31.7217C72.4964 31.6137 72.5773 31.5057 72.6583 31.3978C72.7393 31.2898 72.7932 31.1549 72.8202 31.0469C72.8472 30.9389 72.8742 30.804 72.8742 30.696C72.8742 30.5881 72.9012 30.5071 72.9012 30.4261V28.7527ZM65.8297 30.4261C65.8297 30.5071 65.8297 30.5881 65.8567 30.696C65.8567 30.804 65.8837 30.912 65.9377 31.0469C65.9647 31.1549 66.0187 31.2898 66.0996 31.3978C66.1806 31.5057 66.2616 31.6137 66.3965 31.7217C66.5315 31.8296 66.6664 31.8836 66.8554 31.9646C67.0443 32.0186 67.2602 32.0456 67.5301 32.0456C67.773 32.0456 67.962 32.0186 68.1509 31.9646C68.3129 31.9106 68.4748 31.8566 68.5828 31.7756C68.6907 31.6947 68.7987 31.6137 68.8796 31.5057C68.9606 31.3978 69.0146 31.2898 69.0686 31.1819C69.1226 31.0739 69.1496 30.9659 69.1496 30.858C69.1765 30.75 69.1765 30.669 69.1765 30.5611C69.1765 30.5071 69.1765 30.4801 69.1496 30.4261C69.1226 30.3991 69.0956 30.3721 69.0416 30.3721L68.2859 30.2102C68.2319 30.1832 68.1509 30.2102 68.1239 30.2372C68.0699 30.2642 68.0429 30.3182 68.0429 30.3991C68.0429 30.5071 68.016 30.5881 67.962 30.669C67.935 30.75 67.881 30.804 67.8 30.831C67.7191 30.858 67.6381 30.885 67.5031 30.885C67.3682 30.885 67.2872 30.858 67.2062 30.831C67.1253 30.804 67.0713 30.75 67.0443 30.669C67.0173 30.5881 66.9903 30.5071 66.9903 30.3991C66.9903 30.2912 66.9633 30.1832 66.9903 30.0483V29.1036V28.7527C66.9903 28.6448 67.0173 28.5638 67.0443 28.4828C67.0713 28.4018 67.1253 28.3479 67.2062 28.3209C67.2872 28.2939 67.3682 28.2669 67.5031 28.2669C67.6111 28.2669 67.7191 28.2939 67.8 28.3209C67.881 28.3479 67.935 28.4018 67.962 28.4828C67.989 28.5638 68.016 28.6448 68.016 28.7257C68.016 28.8067 68.0429 28.8607 68.0969 28.8877C68.1509 28.9147 68.2049 28.9417 68.2859 28.9417L69.0146 28.7797C69.0686 28.7797 69.0956 28.7527 69.1226 28.7257C69.1496 28.6987 69.1496 28.6448 69.1496 28.6178C69.1496 28.5368 69.1226 28.4288 69.1226 28.3209L69.0416 27.997C68.9876 27.889 68.9336 27.7811 68.8527 27.6731C68.7717 27.5651 68.6637 27.4842 68.5558 27.4032C68.4208 27.3222 68.2859 27.2683 68.1239 27.2143C67.962 27.1603 67.7461 27.1333 67.5031 27.1333C67.2332 27.1333 67.0173 27.1603 66.8284 27.2143C66.6394 27.2683 66.4775 27.3492 66.3695 27.4572C66.2346 27.5651 66.1536 27.6731 66.0727 27.7811C65.9917 27.889 65.9377 28.024 65.9107 28.1319C65.8837 28.2399 65.8567 28.3749 65.8297 28.4828C65.8297 28.5908 65.8027 28.6718 65.8027 28.7527V30.4261H65.8297ZM65.209 30.777C65.3439 30.777 65.3979 30.831 65.3979 30.9659V31.7217C65.3979 31.7756 65.3709 31.8296 65.3439 31.8566C65.3169 31.8836 65.2629 31.9106 65.182 31.9106H64.4262C64.3723 31.9106 64.3183 31.8836 64.2913 31.8566C64.2643 31.8296 64.2373 31.7756 64.2373 31.7217V30.9659C64.2373 30.912 64.2643 30.858 64.2913 30.804C64.3183 30.777 64.3723 30.75 64.4262 30.75L65.209 30.777Z" fill="#CCCCCC"/>
<path d="M15.7893 13.4227C13.2791 13.2068 1.0255 15.204 0.107822 13.0448C-1.43063 9.45508 11.4438 11.4794 13.1712 11.5333C14.0349 11.5603 15.1145 11.7223 15.7353 11.5603C16.1671 11.4254 16.464 10.7236 16.9498 10.4537C18.0295 9.80596 19.7838 10.1568 21.2953 10.2918C22.3209 10.3728 23.3196 10.4807 24.3992 10.5617C22.8607 10.7776 21.2143 10.9935 19.5949 11.2095C19.406 11.2365 19.1091 11.1555 18.9741 11.3714C20.6205 11.6413 22.4829 11.6953 24.2642 11.8302C22.5099 12.1001 20.5396 12.1541 18.8122 12.478C18.9201 12.6669 19.244 12.613 19.433 12.64C20.9714 12.7479 22.6718 12.8829 24.2912 12.9638C22.6178 13.2337 20.6745 13.2877 19.0011 13.6116C19.0551 13.8815 19.406 13.8005 19.5679 13.8005C21.1064 13.9895 22.8337 14.2054 24.4262 14.3404C22.6718 14.4753 20.5126 14.8802 18.7042 14.9881C17.3007 15.0691 16.464 14.2594 15.7893 13.4227Z" fill="#CCCCCC"/>
<path d="M11.4444 13.6387C13.3877 13.4767 15.0341 13.3418 15.7899 13.3958C16.1407 13.8276 16.4916 14.2325 16.9774 14.5294C17.4363 14.8263 17.9761 15.0152 18.6778 14.9612C19.6765 14.9072 20.7831 14.7453 21.8627 14.6103C22.6454 14.5024 23.4012 14.3944 24.1029 14.3404C23.4012 14.2865 22.6994 14.2055 21.9707 14.1245C21.134 14.0435 20.3243 13.9356 19.5685 13.8276H19.4336C19.2446 13.8276 19.0017 13.8276 18.9747 13.6117V13.5847H19.0017C19.9194 13.3958 20.945 13.2878 21.9707 13.2068C22.6724 13.1529 23.3742 13.0719 24.0219 12.9909C22.8074 12.9099 21.5388 12.829 20.3512 12.748C20.0543 12.721 19.7575 12.694 19.4606 12.694H19.3256C19.1367 12.694 18.9207 12.694 18.8128 12.5321L18.7858 12.5051H18.8128C19.7844 12.3162 20.8371 12.2082 21.8897 12.1272C22.5914 12.0732 23.3202 11.9923 23.9949 11.9113C23.6441 11.8843 23.2662 11.8573 22.9153 11.8303C21.5658 11.7494 20.1893 11.6684 18.9747 11.4795H18.9207L18.9477 11.4525C19.0557 11.2905 19.2446 11.2905 19.4066 11.2905H19.5685L20.8641 11.1286C21.9437 10.9936 23.0503 10.8317 24.0759 10.6967C23.4551 10.6428 22.8344 10.5888 22.2406 10.5348C21.9167 10.5078 21.6198 10.4808 21.2689 10.4538L20.4592 10.3728C19.1637 10.2379 17.8141 10.076 16.9504 10.6158C16.7345 10.7507 16.5456 10.9666 16.3837 11.1826C16.1677 11.4255 15.9788 11.6684 15.7359 11.7494C15.304 11.8573 14.6563 11.8303 14.0085 11.7763C13.7116 11.7494 13.4147 11.7224 13.1448 11.7224C12.8479 11.7224 12.2271 11.6414 11.4174 11.5604C8.50245 11.1016 3.0234 10.5348 0.891157 11.4525C0.135426 11.7763 -0.188459 12.2622 0.135426 13.0449C0.756205 14.5294 6.91002 14.0166 11.4444 13.6387ZM15.7899 13.4498C15.0341 13.3958 13.3877 13.5307 11.4444 13.6927C6.91002 14.0705 0.729215 14.5834 0.0814451 13.0449C-0.26943 12.2352 0.0814451 11.7224 0.864167 11.3715C3.0234 10.4538 8.50245 11.0206 11.4444 11.3175C12.2541 11.3985 12.8749 11.4795 13.1718 11.4795C13.4417 11.4795 13.7386 11.5064 14.0355 11.5334C14.6833 11.5874 15.304 11.6144 15.7359 11.5064C15.9518 11.4525 16.1407 11.2095 16.3567 10.9666C16.5456 10.7507 16.7075 10.5348 16.9504 10.3998C17.8411 9.86003 19.1907 10.022 20.5132 10.1569L21.3229 10.2379C21.6198 10.2649 21.9707 10.2919 22.2945 10.3189C22.9963 10.3728 23.6981 10.4538 24.4268 10.4808L24.7237 10.5078L24.4538 10.5618C23.3472 10.7237 22.1596 10.8857 20.972 11.0476L19.6765 11.2096H19.5145C19.3796 11.2096 19.2176 11.2096 19.1097 11.3175C20.3243 11.5064 21.6738 11.5874 23.0233 11.6684C23.4821 11.6954 23.914 11.7224 24.3728 11.7494L24.6427 11.7763L24.3728 11.8033C23.6171 11.9113 22.8074 11.9923 21.9977 12.0732C20.972 12.1812 19.9194 12.2622 18.9747 12.4511C19.0557 12.5591 19.2446 12.5591 19.4066 12.5591H19.5415C19.8384 12.5861 20.1353 12.6131 20.4322 12.6131C21.7278 12.721 23.0773 12.802 24.3728 12.883L24.6427 12.9099L24.3728 12.9639C23.6171 13.0719 22.8344 13.1529 22.0516 13.2338C21.053 13.3418 20.0543 13.4228 19.1367 13.6117C19.1907 13.7736 19.3796 13.7466 19.5415 13.7466H19.6765C20.4592 13.8276 21.2689 13.9356 22.0786 14.0435C22.8883 14.1245 23.725 14.2325 24.5078 14.2865V14.3404C23.725 14.3944 22.8344 14.5294 21.9437 14.6373C20.8641 14.7723 19.7575 14.9342 18.7588 14.9882C18.0571 15.0422 17.4903 14.8533 17.0314 14.5564C16.4916 14.2865 16.1137 13.8816 15.7899 13.4498Z" fill="#CCCCCC"/>
</g>
<defs>
<clipPath id="clip0_41653_15653">
<rect width="82.6446" height="32" fill="white"/>
</clipPath>
</defs>
</svg>
