<svg width="60" height="33" viewBox="0 0 60 33" fill="none" xmlns="http://www.w3.org/2000/svg">
<path fill-rule="evenodd" clip-rule="evenodd" d="M25.6324 28.4778C23.0484 30.6554 19.6339 31.9809 16.0347 31.9809C7.54444 31.9809 0.738446 24.9737 0.738446 16.3811C0.738446 7.7645 7.54444 0.757324 16.0347 0.757324C21.6642 0.757324 26.5555 3.88208 29.2316 8.61658C29.6006 8.71133 29.8777 8.80609 30.2464 8.90084C27.5707 3.59817 22.2179 0 16.0347 0C7.17504 0 0 7.29109 0 16.3811C0 25.4478 7.17538 32.8333 16.0347 32.8333C20.1876 32.8333 23.9712 31.1292 26.8322 28.4778H25.6324Z" fill="#CCCCCC"/>
<path fill-rule="evenodd" clip-rule="evenodd" d="M18.0649 27.7207H59.9394V21.2817H18.0649V27.7207Z" fill="#CCCCCC"/>
<path fill-rule="evenodd" clip-rule="evenodd" d="M20.1874 9.75243L20.0027 10.6049H17.9724C17.4186 16.6652 17.0496 21.5649 16.6805 23.8379C15.8501 27.9095 12.1585 30.1818 9.75917 30.1818C8.92872 30.1818 7.91357 29.8035 7.91357 28.7619C7.91357 28.1938 8.37497 27.7204 8.92872 27.7204C9.75917 27.7204 10.4053 28.3829 10.8667 29.1403C12.1589 28.3829 12.3432 27.7204 12.897 25.0687C13.174 23.8379 13.9121 15.0551 14.2812 10.6049H12.6199L12.8046 9.75243H14.4659L14.6506 8.23778C15.5734 2.6512 19.5416 1.98828 21.0185 1.98828C21.7566 1.98828 23.2331 2.36694 23.2331 3.40853C23.2331 4.0711 22.6794 4.35536 22.1256 4.35536C21.1105 4.35536 20.6491 3.78719 20.1874 2.93476C18.5261 3.69243 18.2494 7.85877 18.0647 9.75208H20.1874V9.75243ZM20.003 17.5169C20.003 13.067 22.7717 9.18461 27.4781 9.18461C30.4315 9.18461 32.0921 10.5105 32.0921 13.4457C32.0921 17.8959 29.3237 21.66 24.617 21.66C21.6642 21.66 20.003 20.3342 20.003 17.5169ZM28.3089 14.1086C28.3089 12.9723 28.2165 10.2265 26.5556 10.2265C24.1563 10.2265 23.7869 15.0555 23.7869 16.8547C23.7869 17.8963 23.8792 20.7135 25.5401 20.7135C27.9395 20.7132 28.3089 15.9075 28.3089 14.1086ZM33.1076 17.5169C33.1076 13.067 35.9687 9.18461 40.675 9.18461C43.5361 9.18461 45.266 10.5105 45.266 13.4457C45.266 17.8959 42.4283 21.66 37.7219 21.66C34.8608 21.66 33.1076 20.3342 33.1076 17.5169ZM41.5055 14.1086C41.5055 12.9723 41.4135 10.2265 39.7522 10.2265C37.2605 10.2265 36.9838 15.0555 36.9838 16.8547C36.9838 17.8963 36.9838 20.7135 38.6447 20.7135C41.1361 20.7132 41.5055 15.9075 41.5055 14.1086ZM59.5708 20.2398C57.9092 20.9971 55.8789 21.6597 54.495 21.6597C53.7569 21.6597 53.8486 20.523 53.8486 20.0499C53.8486 19.4824 53.8486 18.7241 54.0336 17.2334L53.9409 17.1383C53.0181 19.1031 51.1725 21.6597 48.7732 21.6597C46.9272 21.6597 46.0965 19.6712 46.0965 17.9907C46.0965 13.824 49.3263 9.37412 53.9409 9.37412H54.8637C55.2331 6.43852 55.2331 5.20779 55.2331 4.2606C55.2331 3.97669 55.2331 3.69243 54.9561 3.69243C54.679 3.69243 54.3103 3.78719 53.3872 4.0711L53.2028 3.31377C55.0488 2.6512 57.0791 2.27219 58.9243 2.17744C59.1094 2.17744 59.2014 2.17744 59.2014 2.5561C59.2014 5.01793 57.3554 17.8956 57.3554 19.1982C57.3554 19.4824 57.3554 19.9555 57.7248 19.9555C57.9092 19.9555 58.5556 19.7656 59.2937 19.4821L59.5708 20.2398ZM53.5715 16.1918C54.218 14.582 54.4023 12.9723 54.7717 10.5105C54.5867 10.4154 54.4023 10.4154 54.3103 10.4154C51.4492 10.4154 50.0647 14.7712 50.0647 17.1383C50.0647 17.7064 50.1574 19.1031 50.9878 19.1031C52.1877 19.1034 53.2028 17.1386 53.5715 16.1918Z" fill="#CCCCCC"/>
<path fill-rule="evenodd" clip-rule="evenodd" d="M20.5566 22.7964H21.5718L22.8636 24.7848V22.7964H23.6944V26.5837H22.956L21.3871 24.4065V26.5837H20.5566V22.7964ZM26.0934 22.7964H28.9545V23.5541H27.2009V24.2163H28.3088V25.0687H27.2009V25.7313H28.9545V26.5837H26.0934V22.7964ZM32.0003 23.5541H30.9852V22.7964H34.1226V23.5541H33.1075V26.5837H32.0003V23.5541ZM35.9686 22.7964H37.0754L37.5375 24.7848H37.6291L38.0905 22.7964H39.014L39.4751 24.7848H39.5678L40.0292 22.7964H40.8593L39.9365 26.5837H39.014L38.4599 24.5006L37.9062 26.5837H36.9837L35.9686 22.7964ZM44.6202 26.6788C43.536 26.6788 42.7976 25.9215 42.7976 24.6901C42.7976 23.4593 43.5357 22.7017 44.6202 22.7017C45.728 22.7017 46.3734 23.459 46.3734 24.6901C46.3734 25.9212 45.7277 26.6788 44.6202 26.6788ZM43.9744 24.6897C43.9744 25.7313 44.2515 25.9212 44.6202 25.9212C44.9896 25.9212 45.2659 25.7313 45.2659 24.6897C45.2659 23.6488 44.9896 23.459 44.6202 23.459C44.1588 23.459 43.9744 23.7432 43.9744 24.6897ZM48.5881 22.7964H50.434C51.6335 22.7964 51.9106 23.3639 51.9106 23.838C51.9106 24.3114 51.6335 24.6897 51.1725 24.7848L51.9106 26.5837H50.7111L50.1573 24.974H49.6959V26.5837H48.5881V22.7964ZM49.6959 24.3114H50.2497C50.526 24.3114 50.8034 24.1215 50.8034 23.9324C50.8034 23.6488 50.6184 23.459 50.2497 23.459H49.6959V24.3114ZM54.2179 22.7964H55.3254V24.3114L56.4326 22.7964H57.4477L56.5249 24.0271L57.6321 26.5837H56.5249L55.7868 24.974L55.3254 25.6373V26.5837H54.2179V22.7964Z" fill="white"/>
</svg>
