<svg width="67" height="33" viewBox="0 0 67 33" fill="none" xmlns="http://www.w3.org/2000/svg">
<path fill-rule="evenodd" clip-rule="evenodd" d="M1.44813 4.54592H5.65404C5.27729 4.28238 4.56803 3.94678 3.40054 3.94678C2.55548 3.94678 1.92265 4.18882 1.44813 4.54592ZM6.36019 4.54592H10.7593C10.241 4.18882 9.5154 3.94678 8.50195 3.94678C7.43184 3.94678 6.73927 4.28238 6.36019 4.54592ZM0.854492 5.14507H11.3879C11.211 4.91206 10.9988 4.70976 10.7593 4.54592H6.36019C6.11537 4.71591 6.00129 4.85564 6.00129 4.85564C6.00129 4.85564 5.89653 4.71591 5.65404 4.54592H1.44813C1.22378 4.716 1.02393 4.9177 0.854492 5.14507Z" fill="#CCCCCC"/>
<path fill-rule="evenodd" clip-rule="evenodd" d="M0.502441 5.72395H11.73C11.6381 5.51828 11.5234 5.32418 11.3881 5.14551H0.854356C0.714677 5.33182 0.598665 5.52809 0.502441 5.72395Z" fill="#CCCCCC"/>
<path fill-rule="evenodd" clip-rule="evenodd" d="M0.262346 6.32229H11.9345C11.8843 6.11654 11.8157 5.91597 11.7296 5.72314H0.502518C0.402414 5.92697 0.324038 6.1304 0.262346 6.32229ZM0.109863 6.92183H2.79636C2.96941 6.71561 3.25459 6.5293 3.72058 6.5293C4.18695 6.5293 4.45234 6.71601 4.60288 6.92183H7.58038C7.75615 6.71561 8.04637 6.5293 8.52128 6.5293C8.9698 6.5293 9.23713 6.71601 9.39621 6.92183H12.0331C12.0151 6.7198 11.9821 6.51949 11.9341 6.32269H0.262346C0.199581 6.519 0.148657 6.71909 0.109863 6.92183Z" fill="#CCCCCC"/>
<path fill-rule="evenodd" clip-rule="evenodd" d="M0.0397383 7.50081H2.54039V7.4594C2.54039 7.4594 2.58307 7.17635 2.79647 6.92236H0.109966C0.0486622 7.24523 0.0397383 7.4594 0.0397383 7.4594V7.50081ZM4.80126 7.50081H7.32209V7.4594C7.32209 7.4594 7.36516 7.17635 7.58128 6.92236H4.60377C4.71632 7.07946 4.78476 7.2652 4.80165 7.4594V7.50081H4.80126ZM9.62215 7.50081H12.0429V7.4594C12.0429 7.4594 12.0623 7.24483 12.0336 6.92236H9.39672C9.5915 7.17635 9.62215 7.4594 9.62215 7.4594V7.50081ZM0.0385742 8.09995H2.54039V7.50081H0.0397383L0.0385742 8.09995ZM4.80126 8.09995H7.32209V7.50081H4.80126V8.09995ZM9.62215 8.09995H12.0429V7.50081H9.62215V8.09995Z" fill="#CCCCCC"/>
<path fill-rule="evenodd" clip-rule="evenodd" d="M0.0371964 8.69973H2.54056V8.10059H0.0387487L0.0371964 8.69973ZM4.80104 8.69973H7.32187V8.10059H4.80104V8.69973ZM9.62193 8.69973H12.0426V8.10059H9.62193V8.69973ZM0.0356445 9.27818H2.54018V8.69973H0.0368086L0.0356445 9.27818ZM4.80104 9.27818H7.32187V8.69973H4.80104V9.27818ZM9.62193 9.27818H12.0426V8.69973H9.62193V9.27818Z" fill="#CCCCCC"/>
<path fill-rule="evenodd" clip-rule="evenodd" d="M0.0348555 9.87698H2.54055V9.27783H0.0356314L0.0348555 9.87698ZM4.80103 9.87698H7.32186V9.27783H4.80103V9.87698ZM9.62191 9.87698H12.0426V9.27783H9.62191V9.87698ZM0.0336914 10.4554H2.54055V9.87698H0.0348555L0.0336914 10.4554ZM4.80103 10.4554H7.32186V9.87698H4.80103V10.4554ZM9.62191 10.4554H12.0426V9.87698H9.62191V10.4554Z" fill="#CCCCCC"/>
<path fill-rule="evenodd" clip-rule="evenodd" d="M0.0324141 11.0551H2.54044V10.4556H0.0335782L0.0324141 11.0551ZM4.8013 11.0551H7.32213V10.4556H4.8013V11.0551ZM9.62219 11.0551H12.0429V10.4556H9.62219V11.0551ZM0.03125 11.6543H2.54082V11.0551H0.0328019L0.03125 11.6543ZM4.8013 11.6543H7.32213V11.0551H4.8013V11.6543ZM9.62219 11.6543H12.0429V11.0551H9.62219V11.6543Z" fill="#CCCCCC"/>
<path fill-rule="evenodd" clip-rule="evenodd" d="M0.0297852 12.2322H2.54053V11.6538H0.0309493L0.0297852 12.2322ZM4.80101 12.2322H7.32184V11.6538H4.80101V12.2322ZM9.62189 12.2322H12.0426V11.6538H9.62189V12.2322Z" fill="#CCCCCC"/>
<path fill-rule="evenodd" clip-rule="evenodd" d="M0.0288086 12.832H2.54071V12.2324H0.0299723L0.0288086 12.832ZM4.80119 12.832H7.32202V12.2324H4.80119V12.832ZM9.62208 12.832H12.0428V12.2324H9.62208V12.832Z" fill="#CCCCCC"/>
<path fill-rule="evenodd" clip-rule="evenodd" d="M0.0273438 13.4307H2.5408V12.8315H0.028896L0.0273438 13.4307ZM4.80128 13.4307H7.3221V12.8315H4.80128V13.4307ZM9.62216 13.4307H12.0429V12.8315H9.62216V13.4307Z" fill="#CCCCCC"/>
<path fill-rule="evenodd" clip-rule="evenodd" d="M0.0265413 14.0091H2.54077V13.4307H0.0273172L0.0265413 14.0091ZM4.80125 14.0091H7.32208V13.4307H4.80125V14.0091ZM9.62214 14.0091H12.0429V13.4307H9.62214V14.0091ZM0.0249894 14.6083H2.54039V14.0091H0.0261535L0.0249894 14.6083ZM4.80125 14.6083H7.32208V14.0091H4.80125V14.6083ZM9.62214 14.6083H12.0429V14.0091H9.62214V14.6083ZM0.0234375 15.2078H2.54039V14.6086H0.0249894L0.0234375 15.2078ZM4.80125 15.2078H7.32208V14.6086H4.80125V15.2078ZM9.62214 15.2078H12.0429V14.6086H9.62214V15.2078Z" fill="#CCCCCC"/>
<path fill-rule="evenodd" clip-rule="evenodd" d="M0.0221602 15.7864H2.54027V15.208H0.0233243L0.0221602 15.7864ZM4.80114 15.7864H7.32196V15.208H4.80114V15.7864ZM9.62202 15.7864H12.0427V15.208H9.62202V15.7864ZM0.0209961 16.3856H2.54027V15.7864H0.0221602L0.0209961 16.3856ZM4.80114 16.3856H7.32196V15.7864H4.80114V16.3856ZM9.62202 16.3856H12.0427V15.7864H9.62202V16.3856Z" fill="#CCCCCC"/>
<path fill-rule="evenodd" clip-rule="evenodd" d="M0.0195312 16.9849H2.54036V16.3857H0.0210835L0.0195312 16.9849ZM4.80084 16.9849H7.32167V16.3857H4.80084V16.9849ZM9.62173 16.9849H12.0424V16.3857H9.62173V16.9849Z" fill="#CCCCCC"/>
<path fill-rule="evenodd" clip-rule="evenodd" d="M0.0187422 17.5628H2.54074V16.9844H0.019906L0.0187422 17.5628ZM4.80122 17.5628H7.32205V16.9844H4.80122V17.5628ZM9.62211 17.5628H12.0428V16.9844H9.62211V17.5628ZM0.0175781 18.1624H2.54074V17.5628H0.0187422L0.0175781 18.1624ZM4.80122 18.1624H7.32205V17.5628H4.80122V18.1624ZM9.62211 18.1624H12.0428V17.5628H9.62211V18.1624Z" fill="#CCCCCC"/>
<path fill-rule="evenodd" clip-rule="evenodd" d="M0.0160001 18.741H2.54032V18.1626H0.0171638L0.0160001 18.741ZM4.80119 18.741H7.32202V18.1626H4.80119V18.741ZM9.62208 18.741H12.0428V18.1626H9.62208V18.741ZM0.014836 19.3406H2.54071V18.741H0.0163879L0.014836 19.3406ZM4.80119 19.3406H7.32202V18.741H4.80119V19.3406ZM9.62208 19.3406H12.0428V18.741H9.62208V19.3406ZM0.0136719 19.9393H2.54071V19.3406H0.014836L0.0136719 19.9393ZM4.80119 19.9393H7.32202V19.3406H4.80119V19.9393ZM9.62208 19.9393H12.0428V19.3406H9.62208V19.9393Z" fill="#CCCCCC"/>
<path fill-rule="evenodd" clip-rule="evenodd" d="M0.0119063 20.5187H2.5405V19.9395H0.0134582L0.0119063 20.5187ZM4.80098 20.5187H7.32181V19.9395H4.80098V20.5187ZM9.62186 20.5187H12.0426V19.9395H9.62186V20.5187ZM0.0107422 21.1174H2.54011V20.5187H0.0115181L0.0107422 21.1174ZM4.80098 21.1174H7.32181V20.5187H4.80098V21.1174ZM9.62186 21.1174H12.0426V20.5187H9.62186V21.1174Z" fill="#CCCCCC"/>
<path fill-rule="evenodd" clip-rule="evenodd" d="M0.00985266 21.7167H2.54038V21.1172H0.0110168L0.00985266 21.7167ZM4.80125 21.7167H7.32207V21.1172H4.80125V21.7167ZM9.62212 21.7167H12.0428V21.1172H9.62212V21.7167ZM0.00830078 22.2956H2.54038V21.7171H0.00985266L0.00830078 22.2956ZM4.80125 22.2956H7.32207V21.7171H4.80125V22.2956ZM9.62212 22.2956H12.0428V21.7171H9.62212V22.2956Z" fill="#CCCCCC"/>
<path fill-rule="evenodd" clip-rule="evenodd" d="M0.00732422 22.895H2.54057V22.2954H0.00848831L0.00732422 22.895ZM4.80105 22.895H7.32187V22.2954H4.80105V22.895ZM9.62193 22.895H12.0426V22.2954H9.62193V22.895Z" fill="#CCCCCC"/>
<path fill-rule="evenodd" clip-rule="evenodd" d="M0.00555863 23.4933H2.53996V22.8945H0.00672235L0.00555863 23.4933ZM4.80083 23.4933H7.32166V22.8945H4.80083V23.4933ZM9.62171 23.4933H12.0424V22.8945H9.62171V23.4933ZM0.00439453 24.0717H2.53996V23.4933H0.00555863L0.00439453 24.0717ZM4.80083 24.0717H7.32166V23.4933H4.80083V24.0717ZM9.62171 24.0717H12.0424V23.4933H9.62171V24.0717Z" fill="#CCCCCC"/>
<path fill-rule="evenodd" clip-rule="evenodd" d="M0.00330439 24.6713H2.54004V24.0718H0.00446848L0.00330439 24.6713ZM4.80091 24.6713H7.32173V24.0718H4.80091V24.6713ZM9.62179 24.6713H12.0425V24.0718H9.62179V24.6713ZM0.00252844 25.2709H2.54043V24.6713H0.00369254L0.00252844 25.2709ZM4.80091 25.2709H7.32173V24.6713H4.80091V25.2709ZM9.62179 25.2709H12.0425V24.6713H9.62179V25.2709ZM0.000976562 25.8493H2.54043V25.2709H0.00252844L0.000976562 25.8493ZM4.80091 25.8493H7.32173V25.2709H4.80091V25.8493ZM9.62179 25.8493H12.0425V25.2709H9.62179V25.8493Z" fill="#CCCCCC"/>
<path fill-rule="evenodd" clip-rule="evenodd" d="M0 26.4479H2.54061V25.8491H0.0011641L0 26.4479ZM4.80109 26.4479H7.32192V25.8491H4.80109V26.4479ZM9.62197 26.4479H12.0427V25.8491H9.62197V26.4479Z" fill="#CCCCCC"/>
<path fill-rule="evenodd" clip-rule="evenodd" d="M30.668 3.69876H30.9982L30.668 3.09961V3.69876ZM30.668 4.3186H31.3404L30.9982 3.69876H30.668V4.3186Z" fill="#CCCCCC"/>
<path fill-rule="evenodd" clip-rule="evenodd" d="M30.668 4.9387H31.6822L31.3404 4.31885H30.668V4.9387ZM35.5692 4.9387H37.9297V4.33955H35.5692V4.9387Z" fill="#CCCCCC"/>
<path fill-rule="evenodd" clip-rule="evenodd" d="M30.668 5.55872H32.0244L31.6822 4.93848H30.668V5.55872ZM35.5692 5.55872H37.9297V4.93848H35.5692V5.55872Z" fill="#CCCCCC"/>
<path fill-rule="evenodd" clip-rule="evenodd" d="M30.668 6.15775H32.3546L32.0244 5.55859H30.668V6.15775ZM35.5692 6.15775H37.9297V5.55859H35.5692V6.15775Z" fill="#CCCCCC"/>
<path fill-rule="evenodd" clip-rule="evenodd" d="M30.668 6.77756H32.6968L32.3546 6.15771H30.668V6.77756ZM35.5692 6.77756H37.9297V6.15771H35.5692V6.77756ZM30.668 7.3974H33.0386L32.6968 6.77756H30.668V7.3974ZM35.5692 7.3974H37.9297V6.77756H35.5692V7.3974Z" fill="#CCCCCC"/>
<path fill-rule="evenodd" clip-rule="evenodd" d="M30.6679 8.0169H33.3808L33.0385 7.39746H30.6679V8.0169ZM35.5691 8.0169H37.9297V7.39746H35.5691V8.0169ZM30.6679 8.61644H33.7109L33.3804 8.0169H30.6675V8.61644H30.6679ZM35.5691 8.61644H37.9297V8.0169H35.5691V8.61644Z" fill="#CCCCCC"/>
<path fill-rule="evenodd" clip-rule="evenodd" d="M30.668 9.23655H34.0529L33.711 8.6167H30.668V9.23655ZM35.5692 9.23655H37.9297V8.6167H35.5692V9.23655ZM30.668 9.85639H34.3955L34.0529 9.23655H30.668V9.85639ZM35.5692 9.85639H37.9297V9.23655H35.5692V9.85639Z" fill="#CCCCCC"/>
<path fill-rule="evenodd" clip-rule="evenodd" d="M30.668 10.4762H34.7373L34.3955 9.85596H30.668V10.4762ZM35.5692 10.4762H37.9297V9.85596H35.5692V10.4762Z" fill="#CCCCCC"/>
<path fill-rule="evenodd" clip-rule="evenodd" d="M30.668 11.0752H35.0675L34.7369 10.4761H30.668V11.0752ZM35.5692 11.0752H37.9297V10.4761H35.5692V11.0752ZM30.668 11.6951H35.4093L35.0675 11.0752H30.668V11.6951ZM35.5692 11.6951H37.9297V11.0752H35.5692V11.6951Z" fill="#CCCCCC"/>
<path fill-rule="evenodd" clip-rule="evenodd" d="M30.668 12.3147H37.9297V11.6948H35.5692V11.9846L35.4093 11.6948H30.668V12.3147ZM30.668 12.9345H32.9882V12.3768L33.3382 12.9345H37.9297V12.3147H30.668V12.9345Z" fill="#CCCCCC"/>
<path fill-rule="evenodd" clip-rule="evenodd" d="M30.668 13.5342H32.9882V12.9351H30.668V13.5342ZM33.7134 13.5342H37.9297V12.9351H33.3382L33.7134 13.5342Z" fill="#CCCCCC"/>
<path fill-rule="evenodd" clip-rule="evenodd" d="M30.668 14.154H32.9882V13.5342H30.668V14.154ZM34.1021 14.154H37.9297V13.5342H33.7134L34.1021 14.154Z" fill="#CCCCCC"/>
<path fill-rule="evenodd" clip-rule="evenodd" d="M30.668 14.7736H32.9882V14.1538H30.668V14.7736ZM34.4909 14.7736H37.9297V14.1538H34.1021L34.4909 14.7736Z" fill="#CCCCCC"/>
<path fill-rule="evenodd" clip-rule="evenodd" d="M30.668 15.373H32.9882V14.7734H30.668V15.373ZM34.8661 15.373H37.9297V14.7734H34.4909L34.8661 15.373Z" fill="#CCCCCC"/>
<path fill-rule="evenodd" clip-rule="evenodd" d="M30.668 15.9929H32.9882V15.373H30.668V15.9929ZM35.2545 15.9929H37.9297V15.373H34.8661L35.2545 15.9929Z" fill="#CCCCCC"/>
<path fill-rule="evenodd" clip-rule="evenodd" d="M30.668 16.613H32.9882V15.9932H30.668V16.613ZM35.6433 16.613H37.9297V15.9932H35.2545L35.6433 16.613ZM30.668 17.2329H32.9882V16.613H30.668V17.2329ZM35.6693 17.2329H37.9297V16.613H35.6433L35.6689 16.6544V17.2329H35.6693ZM30.668 17.8324H32.9882V17.2329H30.668V17.8324ZM35.6693 17.8324H37.9297V17.2329H35.6693V17.8324Z" fill="#CCCCCC"/>
<path fill-rule="evenodd" clip-rule="evenodd" d="M30.668 18.4514H32.9882V17.8315H30.668V18.4514ZM35.6693 18.4514H37.9297V17.8315H35.6693V18.4514ZM30.668 19.0712H32.9882V18.4514H30.668V19.0712ZM35.6693 19.0712H37.9297V18.4514H35.6693V19.0712Z" fill="#CCCCCC"/>
<path fill-rule="evenodd" clip-rule="evenodd" d="M30.668 19.6919H32.9882V19.0713H30.668V19.6919ZM35.6693 19.6919H37.9297V19.0713H35.6693V19.6919Z" fill="#CCCCCC"/>
<path fill-rule="evenodd" clip-rule="evenodd" d="M30.668 20.2906H32.9882V19.6919H30.668V20.2906ZM35.6693 20.2906H37.9297V19.6919H35.6693V20.2906ZM30.668 20.9113H32.9882V20.2906H30.668V20.9113ZM35.6693 20.9113H37.9297V20.2906H35.6693V20.9113Z" fill="#CCCCCC"/>
<path fill-rule="evenodd" clip-rule="evenodd" d="M30.668 21.531H32.9882V20.9111H30.668V21.531ZM35.6693 21.531H37.9297V20.9111H35.6693V21.531Z" fill="#CCCCCC"/>
<path fill-rule="evenodd" clip-rule="evenodd" d="M30.668 22.1501H32.9882V21.5303H30.668V22.1501ZM35.6693 22.1501H37.9297V21.5303H35.6693V22.1501ZM30.668 22.7497H32.9882V22.1501H30.668V22.7497ZM35.6693 22.7497H37.9297V22.1501H35.6693V22.7497Z" fill="#CCCCCC"/>
<path fill-rule="evenodd" clip-rule="evenodd" d="M30.668 23.3699H32.9882V22.75H30.668V23.3699ZM35.6693 23.3699H37.9297V22.75H35.6693V23.3699Z" fill="#CCCCCC"/>
<path fill-rule="evenodd" clip-rule="evenodd" d="M30.668 23.989H32.9882V23.3691H30.668V23.989ZM35.6693 23.989H37.9297V23.3691H35.6693V23.989Z" fill="#CCCCCC"/>
<path fill-rule="evenodd" clip-rule="evenodd" d="M30.668 24.6091H32.9882V23.9893H30.668V24.6091ZM35.6693 24.6091H37.9297V23.9893H35.6693V24.6091Z" fill="#CCCCCC"/>
<path fill-rule="evenodd" clip-rule="evenodd" d="M30.668 25.2089H32.9882V24.6094H30.668V25.2089ZM35.6693 25.2089H37.9297V24.6094H35.6693V25.2089ZM30.668 25.8288H32.9882V25.2089H30.668V25.8288ZM35.6693 25.8288H37.9297V25.2089H35.6693V25.8288Z" fill="#CCCCCC"/>
<path fill-rule="evenodd" clip-rule="evenodd" d="M30.668 26.448H32.9882V25.8281H30.668V26.448ZM35.6693 26.448H37.9297V25.8281H35.6693V26.448Z" fill="#CCCCCC"/>
<path fill-rule="evenodd" clip-rule="evenodd" d="M51.9004 0.868256H53.7531V0C53.7531 0 53.0073 0.26195 51.9004 0.868256Z" fill="#CCCCCC"/>
<path fill-rule="evenodd" clip-rule="evenodd" d="M50.4683 1.73563H53.7534V0.868164H51.9008C51.4113 1.13603 50.9334 1.42546 50.4683 1.73563Z" fill="#CCCCCC"/>
<path fill-rule="evenodd" clip-rule="evenodd" d="M49.2942 2.583H53.7531V1.73584H50.4679C50.0668 2.00349 49.6753 2.28606 49.2942 2.583ZM48.259 3.45086H53.7531V2.583H49.2942C48.9395 2.85986 48.5942 3.14933 48.259 3.45086ZM47.3589 4.31872H52.8623C53.4086 4.05557 53.7535 3.94689 53.7535 3.94689V3.45086H48.2594C47.9496 3.72942 47.6492 4.01888 47.3589 4.31872Z" fill="#CCCCCC"/>
<path fill-rule="evenodd" clip-rule="evenodd" d="M46.5715 5.18613H51.3602C51.8399 4.86013 52.3418 4.56997 52.8621 4.31787H47.3588C47.0872 4.5984 46.8246 4.88797 46.5715 5.18613ZM45.8828 6.05399H50.2249C50.587 5.74302 50.9661 5.45341 51.3602 5.18653H46.5715C46.3328 5.46792 46.1031 5.75723 45.8828 6.05399Z" fill="#CCCCCC"/>
<path fill-rule="evenodd" clip-rule="evenodd" d="M45.278 6.92206H49.3117C49.6014 6.61689 49.9063 6.32722 50.225 6.0542H45.8829C45.6723 6.33677 45.4706 6.62621 45.278 6.92206ZM44.7612 7.76923H48.5784C48.8101 7.47541 49.0549 7.19273 49.3121 6.92206H45.2784C45.1 7.19476 44.9281 7.47702 44.7612 7.76923Z" fill="#CCCCCC"/>
<path fill-rule="evenodd" clip-rule="evenodd" d="M44.2998 8.63691H47.9517C48.1482 8.33843 48.3573 8.04887 48.5783 7.76904H44.7612C44.5992 8.05367 44.4454 8.34308 44.2998 8.63691ZM43.9014 9.50517H47.4322C47.599 9.20102 47.7724 8.91199 47.9521 8.6373H44.3002C44.1606 8.91836 44.0271 9.20738 43.9014 9.50517Z" fill="#CCCCCC"/>
<path fill-rule="evenodd" clip-rule="evenodd" d="M43.5601 10.3727H47.0012C47.134 10.078 47.2775 9.78851 47.4315 9.50488H43.9007C43.7795 9.79092 43.6659 10.0803 43.5601 10.3727Z" fill="#CCCCCC"/>
<path fill-rule="evenodd" clip-rule="evenodd" d="M43.2731 11.2399H46.6491C46.7581 10.9398 46.8757 10.6499 47.0006 10.3721H43.5595C43.4582 10.6547 43.3628 10.9441 43.2731 11.2399ZM43.0415 12.0871H46.3698C46.4563 11.7953 46.5494 11.513 46.6495 11.2399H43.2735C43.1889 11.5202 43.1116 11.8026 43.0415 12.0871Z" fill="#CCCCCC"/>
<path fill-rule="evenodd" clip-rule="evenodd" d="M42.8485 12.9553H46.1465C46.214 12.6571 46.2881 12.3677 46.37 12.0874H43.0417C42.9702 12.375 42.9058 12.6644 42.8485 12.9553ZM42.7007 13.8231H45.9766C46.0258 13.5253 46.0825 13.2363 46.1465 12.9553H42.8485C42.793 13.2391 42.7438 13.5285 42.7007 13.8231Z" fill="#CCCCCC"/>
<path fill-rule="evenodd" clip-rule="evenodd" d="M42.5945 14.6906H45.8576C45.8902 14.3936 45.9306 14.1042 45.9767 13.8228H42.7009C42.6589 14.1112 42.6234 14.4005 42.5945 14.6906ZM42.5243 15.5585H45.7851C45.8025 15.2623 45.8266 14.9729 45.858 14.6906H42.5949C42.5652 14.9793 42.5417 15.2687 42.5243 15.5585ZM42.4956 16.4056H45.7548C45.7587 16.1174 45.7684 15.8348 45.7851 15.5589H42.5243C42.5092 15.8409 42.4996 16.1232 42.4956 16.4056Z" fill="#CCCCCC"/>
<path fill-rule="evenodd" clip-rule="evenodd" d="M42.4973 17.2736H45.7635C45.7555 17.0671 45.7515 16.8605 45.7515 16.6538C45.7515 16.5706 45.753 16.4886 45.7546 16.4058H42.4954C42.4938 16.5224 42.4907 16.639 42.4907 16.7573C42.4907 16.9317 42.4938 17.1036 42.4973 17.2736ZM50.4924 17.2736H53.7531V16.7573H50.4924V17.2736Z" fill="#CCCCCC"/>
<path fill-rule="evenodd" clip-rule="evenodd" d="M42.5411 18.1421H45.8232C45.7956 17.8532 45.7759 17.5635 45.7642 17.2734H42.498C42.5062 17.568 42.5206 17.8575 42.5411 18.1421ZM50.4928 18.1421H53.7535V17.2734H50.4928V18.1421Z" fill="#CCCCCC"/>
<path fill-rule="evenodd" clip-rule="evenodd" d="M42.6198 19.0104H45.9329C45.8876 18.7224 45.8509 18.433 45.8231 18.1426H42.541C42.5612 18.4364 42.5872 18.7266 42.6198 19.0104ZM50.4926 19.0104H53.7534V18.1426H50.4926V19.0104Z" fill="#CCCCCC"/>
<path fill-rule="evenodd" clip-rule="evenodd" d="M42.7446 19.8776H46.0965C46.0331 19.5902 45.9785 19.3007 45.9328 19.0098H42.6196C42.6545 19.3048 42.6968 19.5938 42.7446 19.8776ZM50.4925 19.8776H53.7533V19.0098H50.4925V19.8776Z" fill="#CCCCCC"/>
<path fill-rule="evenodd" clip-rule="evenodd" d="M42.9138 20.7453H46.3193C46.2357 20.4586 46.1614 20.1692 46.0965 19.8774H42.7446C42.7947 20.1728 42.8509 20.4623 42.9138 20.7453ZM50.4926 20.7453H53.7533V19.8774H50.4926V20.7453Z" fill="#CCCCCC"/>
<path fill-rule="evenodd" clip-rule="evenodd" d="M43.124 21.5924H46.5969C46.495 21.3135 46.4025 21.0311 46.3195 20.7456H42.9141C42.9777 21.0342 43.0471 21.3165 43.124 21.5924ZM50.4928 21.5924H53.7536V20.7456H50.4928V21.5924ZM43.3897 22.461H46.9492C46.8219 22.1758 46.7044 21.8861 46.5969 21.5924H43.124C43.2058 21.8886 43.2943 22.1788 43.3897 22.461ZM50.4928 22.461H53.7536V21.5924H50.4928V22.461Z" fill="#CCCCCC"/>
<path fill-rule="evenodd" clip-rule="evenodd" d="M43.7116 23.3283H47.377C47.2237 23.0446 47.0808 22.7551 46.9487 22.4604H43.3892C43.4904 22.757 43.5979 23.0461 43.7116 23.3283ZM50.4926 23.3283H53.7534V22.4604H50.4926V23.3283Z" fill="#CCCCCC"/>
<path fill-rule="evenodd" clip-rule="evenodd" d="M44.0945 24.1965H47.891C47.7089 23.9142 47.5375 23.6246 47.3773 23.3286H43.7119C43.8322 23.6256 43.9602 23.915 44.0945 24.1965ZM50.4926 24.1965H53.7533V23.3286H50.4926V24.1965Z" fill="#CCCCCC"/>
<path fill-rule="evenodd" clip-rule="evenodd" d="M44.5425 25.0642H48.5051C48.2886 24.7839 48.0838 24.4944 47.8913 24.1963H44.0947C44.2371 24.4949 44.3873 24.7835 44.5425 25.0642ZM50.4928 25.0642H53.7535V24.1963H50.4928V25.0642Z" fill="#CCCCCC"/>
<path fill-rule="evenodd" clip-rule="evenodd" d="M45.0483 25.9107H49.2209C48.9698 25.6397 48.7308 25.3572 48.5046 25.064H44.542C44.7016 25.3519 44.8705 25.6343 45.0483 25.9107ZM50.4923 25.9107H53.7531V25.064H50.4923V25.9107Z" fill="#CCCCCC"/>
<path fill-rule="evenodd" clip-rule="evenodd" d="M45.6467 26.7788H50.1254C49.8075 26.508 49.5056 26.2179 49.2214 25.9102H45.0488C45.2387 26.2064 45.4381 26.4961 45.6467 26.7788ZM50.4928 26.7788H53.7536V25.9102H50.4928V26.7788Z" fill="#CCCCCC"/>
<path fill-rule="evenodd" clip-rule="evenodd" d="M46.3336 27.6472H53.7534V26.7793H50.4926V27.0687C50.4926 27.0687 50.3549 26.9732 50.1252 26.7793H45.6465C45.8659 27.0765 46.0951 27.3659 46.3336 27.6472Z" fill="#CCCCCC"/>
<path fill-rule="evenodd" clip-rule="evenodd" d="M47.1239 28.5148H53.7532V27.647H46.3335C46.5919 27.9519 46.8565 28.2401 47.1239 28.5148Z" fill="#CCCCCC"/>
<path fill-rule="evenodd" clip-rule="evenodd" d="M48.0358 29.3825H53.7534V28.5146H47.124C47.4179 28.8149 47.722 29.1044 48.0358 29.3825Z" fill="#CCCCCC"/>
<path fill-rule="evenodd" clip-rule="evenodd" d="M49.0923 30.2502H53.7537V29.3823H48.0361C48.3774 29.6852 48.7297 29.9747 49.0923 30.2502ZM50.3001 31.0977H53.7533V30.2502H49.0919C49.4839 30.5484 49.887 30.8311 50.3001 31.0977ZM51.79 31.9656H53.7537V31.0977H50.3005C50.8359 31.4421 51.3403 31.7307 51.79 31.9656Z" fill="#CCCCCC"/>
<path fill-rule="evenodd" clip-rule="evenodd" d="M53.7532 32.8337V31.9658H51.7896C52.9582 32.5765 53.7532 32.8337 53.7532 32.8337Z" fill="#CCCCCC"/>
<path fill-rule="evenodd" clip-rule="evenodd" d="M59.2949 17.6046H61.6753V17.439H59.2949V17.6046ZM64.4565 17.6046H66.9369V17.439H64.4565V17.6046ZM59.2949 18.2033H61.6753V17.6046H59.2949V18.2033ZM64.4565 18.2033H66.9369V17.6046H64.4565V18.2033Z" fill="#CCCCCC"/>
<path fill-rule="evenodd" clip-rule="evenodd" d="M59.2949 18.8032H61.6753V18.2036H59.2949V18.8032ZM64.4565 18.8032H66.9369V18.2036H64.4565V18.8032Z" fill="#CCCCCC"/>
<path fill-rule="evenodd" clip-rule="evenodd" d="M59.2949 19.402H61.6753V18.8032H59.2949V19.402ZM64.4565 19.402H66.9369V18.8032H64.4565V19.402ZM59.2949 20.0015H61.6753V19.402H59.2949V20.0015ZM64.4565 20.0015H66.9369V19.402H64.4565V20.0015Z" fill="#CCCCCC"/>
<path fill-rule="evenodd" clip-rule="evenodd" d="M59.2949 20.601H61.6753V20.0015H59.2949V20.601ZM64.4565 20.601H66.9369V20.0015H64.4565V20.601ZM59.2949 21.2005H61.6753V20.601H59.2949V21.2005ZM64.4565 21.2005H66.9369V20.601H64.4565V21.2005Z" fill="#CCCCCC"/>
<path fill-rule="evenodd" clip-rule="evenodd" d="M59.2949 21.7989H61.6753V21.2002H59.2949V21.7989ZM64.4565 21.7989H66.9369V21.2002H64.4565V21.7989ZM59.2949 22.4188H61.6753V21.7989H59.2949V22.4188ZM64.4565 22.4188H66.9369V21.7989H64.4565V22.4188ZM59.2949 23.0183H61.6753V22.4188H59.2949V23.0183ZM64.4565 23.0183H66.9369V22.4188H64.4565V23.0183Z" fill="#CCCCCC"/>
<path fill-rule="evenodd" clip-rule="evenodd" d="M59.3535 23.6176H61.9361C61.7246 23.3158 61.6753 23.0181 61.6753 23.0181H59.295C59.295 23.0181 59.2915 23.2597 59.3535 23.6176ZM64.3506 23.6176H66.8955C66.9242 23.4186 66.9343 23.2553 66.937 23.1502V23.0181H64.4565C64.4565 23.0181 64.4852 23.3158 64.3506 23.6176ZM59.5037 24.2164H62.9274C62.4249 24.1423 62.1196 23.8788 61.9361 23.6176H59.3535C59.3846 23.794 59.4315 23.9986 59.5037 24.2164ZM63.504 24.2164H66.7624C66.8283 23.9986 66.8691 23.794 66.8951 23.6176H64.3502C64.2338 23.8788 63.9936 24.1423 63.504 24.2164Z" fill="#CCCCCC"/>
<path fill-rule="evenodd" clip-rule="evenodd" d="M59.7577 24.8163H66.5271C66.6287 24.6133 66.7051 24.4099 66.7626 24.2168H63.5042C63.313 24.2454 63.1188 24.2454 62.9276 24.2168H59.5039C59.5675 24.4095 59.6498 24.6133 59.7577 24.8163Z" fill="#CCCCCC"/>
<path fill-rule="evenodd" clip-rule="evenodd" d="M60.164 25.4155H66.14C66.2906 25.2312 66.4205 25.03 66.5272 24.8159H59.7578C59.8713 25.0305 60.0075 25.2316 60.164 25.4155ZM60.8489 26.0142H65.4746C65.7244 25.85 65.9487 25.6482 66.14 25.4155H60.164C60.3626 25.6483 60.5933 25.85 60.8489 26.0142Z" fill="#CCCCCC"/>
<path fill-rule="evenodd" clip-rule="evenodd" d="M65.4743 26.0142H60.8486C61.4035 26.3717 62.155 26.6137 63.1758 26.6137C64.1916 26.6137 64.9335 26.3721 65.4743 26.0142Z" fill="#CCCCCC"/>
<path fill-rule="evenodd" clip-rule="evenodd" d="M60.8365 4.38088H65.413C64.8589 4.02259 64.1043 3.78174 63.0761 3.78174C62.0983 3.78134 61.3739 4.02259 60.8365 4.38088ZM60.1719 4.98003H66.0943C65.8974 4.74678 65.6678 4.54486 65.413 4.38088H60.8365C60.5877 4.54626 60.3637 4.74811 60.1719 4.98003Z" fill="#CCCCCC"/>
<path fill-rule="evenodd" clip-rule="evenodd" d="M59.7742 5.57913H66.4928C66.3818 5.36499 66.2482 5.16406 66.0943 4.97998H60.1719C60.0189 5.1646 59.8856 5.36545 59.7742 5.57913ZM59.5208 6.17827H66.7396C66.6746 5.97146 66.5919 5.77096 66.4924 5.57913H59.7738C59.6737 5.77142 59.5891 5.97181 59.5208 6.17827ZM59.3672 6.77782H61.8923C62.0781 6.49875 62.4204 6.24038 63.0555 6.24038C63.7011 6.24038 64.0492 6.49835 64.2362 6.77782H66.8831C66.8501 6.57469 66.8023 6.37441 66.7399 6.17867H59.5212C59.4564 6.37448 59.4049 6.57467 59.3672 6.77782Z" fill="#CCCCCC"/>
<path fill-rule="evenodd" clip-rule="evenodd" d="M59.2966 7.37639H61.6809C61.7037 7.16223 61.7762 6.95679 61.8923 6.77725H59.3672C59.3164 7.04995 59.3013 7.26532 59.2966 7.37639ZM64.4508 7.37639H66.9371V7.32902C66.9314 7.14392 66.9133 6.95944 66.8831 6.77686H64.2362C64.3914 7.00736 64.4368 7.25219 64.4508 7.37639ZM59.295 7.99624H61.6754V7.4588C61.6754 7.4588 61.6754 7.42775 61.6809 7.37639H59.2966C59.2943 7.42934 59.295 7.4588 59.295 7.4588V7.99624ZM64.4566 7.99624H66.9371V7.37639H64.4508C64.457 7.42775 64.457 7.4588 64.457 7.4588V7.99624H64.4566Z" fill="#CCCCCC"/>
<path fill-rule="evenodd" clip-rule="evenodd" d="M59.2949 8.59613H61.6753V7.99658H59.2949V8.59613ZM64.4565 8.59613H66.9369V7.99658H64.4565V8.59613ZM59.2949 9.19527H61.6753V8.59613H59.2949V9.19527ZM64.4565 9.19527H66.9369V8.59613H64.4565V9.19527Z" fill="#CCCCCC"/>
<path fill-rule="evenodd" clip-rule="evenodd" d="M59.2949 9.79397H61.6753V9.19482H59.2949V9.79397ZM64.4565 9.79397H66.9369V9.19482H64.4565V9.79397ZM59.2949 10.3935H61.6753V9.79437H59.2949V10.3935ZM64.4565 10.3935H66.9369V9.79437H64.4565V10.3935Z" fill="#CCCCCC"/>
<path fill-rule="evenodd" clip-rule="evenodd" d="M59.2949 10.9927H61.6753V10.3936H59.2949V10.9927ZM64.4565 10.9927H66.9369V10.3936H64.4565V10.9927ZM59.2949 11.5918H61.6753V10.9927H59.2949V11.5918ZM64.4565 11.5918H66.9369V10.9927H64.4565V11.5918ZM59.2949 12.191H61.6753V11.5918H59.2949V12.191ZM64.4565 12.191H66.9369V11.5918H64.4565V12.191Z" fill="#CCCCCC"/>
<path fill-rule="evenodd" clip-rule="evenodd" d="M59.2949 12.79H61.6753V12.1909H59.2949V12.79ZM64.4565 12.79H66.9369V12.1909H64.4565V12.79Z" fill="#CCCCCC"/>
<path fill-rule="evenodd" clip-rule="evenodd" d="M59.2949 13.3896H61.6753V12.79H59.2949V13.3896ZM64.4565 13.3896H66.9369V12.79H64.4565V13.3896Z" fill="#CCCCCC"/>
<path fill-rule="evenodd" clip-rule="evenodd" d="M59.2949 13.9888H61.6753V13.3896H59.2949V13.9888ZM64.4565 13.9888H66.9369V13.3896H64.4565V13.9888ZM59.2949 14.5883H61.6753V13.9892H59.2949V14.5883ZM64.4565 14.5883H66.9369V13.9892H64.4565V14.5883ZM59.2949 15.2082H61.6753V14.5883H59.2949V15.2082ZM64.4565 15.2082H66.9369V14.5883H64.4565V15.2082Z" fill="#CCCCCC"/>
<path fill-rule="evenodd" clip-rule="evenodd" d="M59.2949 15.8071H61.6753V15.208H59.2949V15.8071ZM64.4565 15.8071H66.9369V15.208H64.4565V15.8071ZM59.2949 16.4063H61.6753V15.8071H59.2949V16.4063ZM64.4565 16.4063H66.9369V15.8071H64.4565V16.4063Z" fill="#CCCCCC"/>
<path fill-rule="evenodd" clip-rule="evenodd" d="M59.2949 17.0053H61.6753V16.4058H59.2949V17.0053ZM64.4565 17.0053H66.9369V16.4058H64.4565V17.0053ZM66.9369 17.4392V17.0053H64.4565V17.4392H66.9369ZM61.6753 17.0053H59.2949V17.4392H61.6753V17.0053Z" fill="#CCCCCC"/>
<path fill-rule="evenodd" clip-rule="evenodd" d="M19.3819 4.54592H23.9941C23.4532 4.18882 22.7094 3.94678 21.6855 3.94678C20.6662 3.94678 19.9236 4.18882 19.3819 4.54592ZM18.7153 5.14507H24.6568C24.4668 4.91182 24.2432 4.70976 23.9937 4.54592H19.3819C19.1316 4.71006 18.9069 4.91206 18.7153 5.14507Z" fill="#CCCCCC"/>
<path fill-rule="evenodd" clip-rule="evenodd" d="M18.3394 5.72395H25.0292C24.9264 5.5177 24.8018 5.32372 24.6575 5.14551H18.7157C18.5701 5.32367 18.4439 5.51764 18.3394 5.72395Z" fill="#CCCCCC"/>
<path fill-rule="evenodd" clip-rule="evenodd" d="M18.0991 6.32229H25.2639C25.2034 6.11572 25.1248 5.91519 25.0291 5.72314H18.3393C18.2421 5.9152 18.1618 6.1157 18.0991 6.32229ZM17.9648 6.92183H20.5974C20.7786 6.67063 21.1123 6.42579 21.7257 6.42579C22.3585 6.42579 22.6934 6.67063 22.8695 6.92183H25.3923C25.3649 6.71901 25.322 6.51869 25.2643 6.32269H18.0991C18.032 6.54284 17.9905 6.74786 17.9648 6.92183Z" fill="#CCCCCC"/>
<path fill-rule="evenodd" clip-rule="evenodd" d="M17.9242 7.50081H20.3849V7.4594C20.3849 7.4594 20.4063 7.1871 20.5972 6.92236H17.9646C17.9169 7.24523 17.9242 7.4594 17.9242 7.4594V7.50081ZM23.0656 7.50081H25.4262V7.33042C25.4221 7.19384 25.4106 7.05761 25.3916 6.92236H22.8689C23.0551 7.1871 23.0656 7.4594 23.0656 7.4594V7.50081ZM17.9242 8.09995H20.3849V7.50081H17.9242V8.09995ZM23.0656 8.09995H25.4262V7.50081H23.0656V8.09995Z" fill="#CCCCCC"/>
<path fill-rule="evenodd" clip-rule="evenodd" d="M17.9243 8.69973H20.385V8.10059H17.9243V8.69973ZM23.0657 8.69973H25.4263V8.10059H23.0657V8.69973ZM17.9243 9.27818H20.385V8.69973H17.9243V9.27818ZM23.0657 9.27818H25.4263V8.69973H23.0657V9.27818Z" fill="#CCCCCC"/>
<path fill-rule="evenodd" clip-rule="evenodd" d="M17.9243 9.87698H20.385V9.27783H17.9243V9.87698ZM23.0657 9.87698H25.4263V9.27783H23.0657V9.87698ZM17.9243 10.4554H20.385V9.87698H17.9243V10.4554ZM23.0657 10.4554H25.4263V9.87698H23.0657V10.4554Z" fill="#CCCCCC"/>
<path fill-rule="evenodd" clip-rule="evenodd" d="M17.9243 11.0551H20.385V10.4556H17.9243V11.0551ZM23.0657 11.0551H25.4263V10.4556H23.0657V11.0551ZM17.9243 11.6543H20.385V11.0551H17.9243V11.6543ZM23.0657 11.6543H25.4263V11.0551H23.0657V11.6543Z" fill="#CCCCCC"/>
<path fill-rule="evenodd" clip-rule="evenodd" d="M17.9243 12.2322H20.385V11.6538H17.9243V12.2322ZM23.0657 12.2322H25.4263V11.6538H23.0657V12.2322Z" fill="#CCCCCC"/>
<path fill-rule="evenodd" clip-rule="evenodd" d="M17.9243 12.832H20.385V12.2324H17.9243V12.832ZM23.0657 12.832H25.4263V12.2324H23.0657V12.832Z" fill="#CCCCCC"/>
<path fill-rule="evenodd" clip-rule="evenodd" d="M17.9243 13.4307H20.385V12.8315H17.9243V13.4307ZM23.0657 13.4307H25.4263V12.8315H23.0657V13.4307Z" fill="#CCCCCC"/>
<path fill-rule="evenodd" clip-rule="evenodd" d="M17.9243 14.0091H20.385V13.4307H17.9243V14.0091ZM23.0657 14.0091H25.4263V13.4307H23.0657V14.0091ZM17.9243 14.6083H20.385V14.0091H17.9243V14.6083ZM23.0657 14.6083H25.4263V14.0091H23.0657V14.6083ZM17.9243 15.2078H20.385V14.6086H17.9243V15.2078ZM23.0657 15.2078H25.4263V14.6086H23.0657V15.2078Z" fill="#CCCCCC"/>
<path fill-rule="evenodd" clip-rule="evenodd" d="M17.9243 15.7864H20.385V15.208H17.9243V15.7864ZM23.0657 15.7864H25.4263V15.208H23.0657V15.7864ZM17.9243 16.3856H20.385V15.7864H17.9243V16.3856ZM23.0657 16.3856H25.4263V15.7864H23.0657V16.3856Z" fill="#CCCCCC"/>
<path fill-rule="evenodd" clip-rule="evenodd" d="M17.9243 16.9849H20.385V16.3857H17.9243V16.9849ZM23.0657 16.9849H25.4263V16.3857H23.0657V16.9849Z" fill="#CCCCCC"/>
<path fill-rule="evenodd" clip-rule="evenodd" d="M17.9243 17.5628H20.385V16.9844H17.9243V17.5628ZM23.0657 17.5628H25.4263V16.9844H23.0657V17.5628ZM17.9243 18.1624H20.385V17.5628H17.9243V18.1624ZM23.0657 18.1624H25.4263V17.5628H23.0657V18.1624Z" fill="#CCCCCC"/>
<path fill-rule="evenodd" clip-rule="evenodd" d="M17.9245 18.741H20.3852V18.1626H17.9245V18.741ZM23.0658 18.741H25.4264V18.1626H23.0658V18.741ZM17.9245 19.3406H20.3852V18.741H17.9245V19.3406ZM23.0658 19.3406H25.4264V18.741H23.0658V19.3406ZM14.8306 19.9393H25.4264V19.3406H23.0658V19.4851H20.3852V19.3406H17.9245V19.4851H14.5435L14.8306 19.9393Z" fill="#CCCCCC"/>
<path fill-rule="evenodd" clip-rule="evenodd" d="M15.1964 20.5187H25.4264V19.9395H14.8306L15.1964 20.5187ZM15.5747 21.1174H25.4264V20.5187H15.1964L15.5747 21.1174Z" fill="#CCCCCC"/>
<path fill-rule="evenodd" clip-rule="evenodd" d="M15.9534 21.7168H25.4264V21.1177H15.5747L15.9534 21.7168ZM18.0245 22.2956H20.3452V21.9648H23.1259V22.2956H25.4264V21.7168H15.9534L16.0841 21.9238H18.0245V22.2956Z" fill="#CCCCCC"/>
<path fill-rule="evenodd" clip-rule="evenodd" d="M18.0244 22.895H20.345V22.2954H18.0244V22.895ZM23.1258 22.895H25.4263V22.2954H23.1258V22.895Z" fill="#CCCCCC"/>
<path fill-rule="evenodd" clip-rule="evenodd" d="M18.0244 23.4933H20.345V22.8945H18.0244V23.4933ZM23.1258 23.4933H25.4263V22.8945H23.1258V23.4933ZM18.0244 24.0717H20.345V23.4933H18.0244V24.0717ZM23.1258 24.0717H25.4263V23.4933H23.1258V24.0717Z" fill="#CCCCCC"/>
<path fill-rule="evenodd" clip-rule="evenodd" d="M18.0244 24.6713H20.345V24.0718H18.0244V24.6713ZM23.1258 24.6713H25.4263V24.0718H23.1258V24.6713ZM18.0244 25.2709H20.345V24.6713H18.0244V25.2709ZM23.1258 25.2709H25.4263V24.6713H23.1258V25.2709ZM18.0244 25.8493H20.345V25.2709H18.0244V25.8493ZM23.1258 25.8493H25.4263V25.2709H23.1258V25.8493Z" fill="#CCCCCC"/>
<path fill-rule="evenodd" clip-rule="evenodd" d="M18.0244 26.4479H20.345V25.8491H18.0244V26.4479ZM23.1258 26.4479H25.4263V25.8491H23.1258V26.4479Z" fill="#CCCCCC"/>
</svg>
